<svg width="189" height="61" viewBox="0 0 189 61" fill="none" xmlns="http://www.w3.org/2000/svg">
<path d="M57.0477 59.4061C57.1996 59.4061 57.3511 59.4025 57.5019 59.3954C54.7916 59.2948 52.1915 57.8461 50.7334 55.3258H8.91607C6.01555 55.3258 4.08023 53.2823 4.08023 51.2456C4.08023 49.209 6.01555 47.1654 8.91607 47.1654H46.0219L43.6662 43.0851H8.91607C4.22162 43.0851 0 46.5219 0 51.2456C0 55.9693 4.22162 59.4061 8.91607 59.4061H57.0477Z" fill="url(#paint0_linear_328_15)"/>
<path d="M7.48043 53.2857H49.5555L47.1998 49.2055H7.48043C6.3537 49.2055 5.44031 50.1189 5.44031 51.2456C5.44031 52.3723 6.3537 53.2857 7.48043 53.2857Z" fill="url(#paint1_linear_328_15)"/>
<path d="M40.6487 5.55779C40.5727 5.42622 40.4939 5.29689 40.4123 5.16985C41.6803 7.56726 41.7258 10.5434 40.2722 13.0663L61.1809 49.2811C62.6312 51.7931 61.829 54.4909 60.0652 55.5092C58.3014 56.5275 55.564 55.8733 54.1137 53.3614L35.5608 21.2267L33.2051 25.307L50.5802 55.4015C52.9274 59.467 58.0145 61.4046 62.1054 59.0428C66.1962 56.6809 67.0617 51.3065 64.7145 47.241L40.6487 5.55779Z" fill="url(#paint2_linear_328_15)"/>
<path d="M60.1319 51.5445L39.0944 15.1064L36.7387 19.1866L56.5984 53.5846C57.1617 54.5604 58.4094 54.8947 59.3852 54.3313C60.361 53.768 60.6953 52.5203 60.1319 51.5445Z" fill="url(#paint3_linear_328_15)"/>
<path d="M2.0241 46.3448C1.94586 46.475 1.87095 46.6067 1.79939 46.7396C3.28148 44.4683 5.86243 42.9857 8.77365 43.0339L30.3112 7.18941C31.8051 4.70318 34.5535 4.09682 36.2993 5.14577C38.045 6.19473 38.7999 8.90613 37.3061 11.3924L18.1951 43.1983L22.9058 43.2805L40.8035 13.4938C43.2213 9.46992 42.4497 4.08121 38.4007 1.64833C34.3517 -0.784552 29.2315 1.06402 26.8137 5.08794L2.0241 46.3448Z" fill="url(#paint4_linear_328_15)"/>
<path d="M32.7993 7.00957L11.129 43.075L15.8398 43.1572L36.2967 9.11105C36.877 8.14525 36.5646 6.89189 35.5988 6.31159C34.633 5.73128 33.3796 6.04378 32.7993 7.00957Z" fill="url(#paint5_linear_328_15)"/>
<path d="M93.08 18.8972V42.0332H90.872C90.5307 42.0332 90.2427 41.9798 90.008 41.8732C89.784 41.7558 89.5653 41.5638 89.352 41.2972L77.272 25.8732C77.336 26.5772 77.368 27.2278 77.368 27.8252V42.0332H73.576V18.8972H75.832C76.0133 18.8972 76.168 18.9078 76.296 18.9292C76.4347 18.9398 76.552 18.9718 76.648 19.0252C76.7547 19.0678 76.856 19.1372 76.952 19.2332C77.048 19.3185 77.1547 19.4358 77.272 19.5852L89.4 35.0732C89.368 34.6998 89.3413 34.3318 89.32 33.9692C89.2987 33.6065 89.288 33.2705 89.288 32.9612V18.8972H93.08ZM104.372 25.3612C105.588 25.3612 106.692 25.5585 107.684 25.9532C108.687 26.3478 109.54 26.9078 110.244 27.6332C110.959 28.3585 111.508 29.2438 111.892 30.2892C112.276 31.3345 112.468 32.5025 112.468 33.7932C112.468 35.0945 112.276 36.2678 111.892 37.3132C111.508 38.3585 110.959 39.2492 110.244 39.9852C109.54 40.7212 108.687 41.2865 107.684 41.6812C106.692 42.0758 105.588 42.2732 104.372 42.2732C103.146 42.2732 102.031 42.0758 101.028 41.6812C100.026 41.2865 99.1669 40.7212 98.4523 39.9852C97.7483 39.2492 97.1989 38.3585 96.8043 37.3132C96.4203 36.2678 96.2283 35.0945 96.2283 33.7932C96.2283 32.5025 96.4203 31.3345 96.8043 30.2892C97.1989 29.2438 97.7483 28.3585 98.4523 27.6332C99.1669 26.9078 100.026 26.3478 101.028 25.9532C102.031 25.5585 103.146 25.3612 104.372 25.3612ZM104.372 39.2332C105.738 39.2332 106.746 38.7745 107.396 37.8572C108.058 36.9398 108.388 35.5958 108.388 33.8252C108.388 32.0545 108.058 30.7052 107.396 29.7772C106.746 28.8492 105.738 28.3852 104.372 28.3852C102.986 28.3852 101.956 28.8545 101.284 29.7932C100.623 30.7212 100.292 32.0652 100.292 33.8252C100.292 35.5852 100.623 36.9292 101.284 37.8572C101.956 38.7745 102.986 39.2332 104.372 39.2332ZM115.483 42.0332V25.6172H117.899C118.411 25.6172 118.747 25.8572 118.907 26.3372L119.163 27.5532C119.451 27.2332 119.75 26.9398 120.059 26.6732C120.379 26.4065 120.715 26.1772 121.067 25.9852C121.43 25.7932 121.814 25.6438 122.219 25.5372C122.635 25.4198 123.089 25.3612 123.579 25.3612C124.614 25.3612 125.462 25.6438 126.123 26.2092C126.795 26.7638 127.297 27.5052 127.627 28.4332C127.883 27.8892 128.203 27.4252 128.587 27.0412C128.971 26.6465 129.393 26.3265 129.851 26.0812C130.31 25.8358 130.795 25.6545 131.307 25.5372C131.83 25.4198 132.353 25.3612 132.875 25.3612C133.782 25.3612 134.587 25.4998 135.291 25.7772C135.995 26.0545 136.587 26.4598 137.067 26.9932C137.547 27.5265 137.91 28.1772 138.155 28.9452C138.411 29.7132 138.539 30.5932 138.539 31.5852V42.0332H134.587V31.5852C134.587 30.5398 134.358 29.7558 133.899 29.2332C133.441 28.6998 132.769 28.4332 131.883 28.4332C131.478 28.4332 131.099 28.5025 130.747 28.6412C130.406 28.7798 130.102 28.9825 129.835 29.2492C129.579 29.5052 129.377 29.8305 129.227 30.2252C129.078 30.6198 129.003 31.0732 129.003 31.5852V42.0332H125.035V31.5852C125.035 30.4865 124.811 29.6865 124.363 29.1852C123.926 28.6838 123.281 28.4332 122.427 28.4332C121.851 28.4332 121.313 28.5772 120.811 28.8652C120.321 29.1425 119.862 29.5265 119.435 30.0172V42.0332H115.483ZM150.968 35.0252C149.826 35.0785 148.866 35.1798 148.088 35.3292C147.309 35.4678 146.685 35.6492 146.216 35.8732C145.746 36.0972 145.41 36.3585 145.208 36.6572C145.005 36.9558 144.904 37.2812 144.904 37.6332C144.904 38.3265 145.106 38.8225 145.512 39.1212C145.928 39.4198 146.466 39.5692 147.128 39.5692C147.938 39.5692 148.637 39.4252 149.224 39.1372C149.821 38.8385 150.402 38.3905 150.968 37.7932V35.0252ZM141.912 27.9052C143.8 26.1772 146.072 25.3132 148.728 25.3132C149.688 25.3132 150.546 25.4732 151.304 25.7932C152.061 26.1025 152.701 26.5398 153.224 27.1052C153.746 27.6598 154.141 28.3265 154.408 29.1052C154.685 29.8838 154.824 30.7372 154.824 31.6652V42.0332H153.032C152.658 42.0332 152.37 41.9798 152.168 41.8732C151.965 41.7558 151.805 41.5265 151.688 41.1852L151.336 40.0012C150.92 40.3745 150.514 40.7052 150.12 40.9932C149.725 41.2705 149.314 41.5052 148.888 41.6972C148.461 41.8892 148.002 42.0332 147.512 42.1292C147.032 42.2358 146.498 42.2892 145.912 42.2892C145.218 42.2892 144.578 42.1985 143.992 42.0172C143.405 41.8252 142.898 41.5425 142.472 41.1692C142.045 40.7958 141.714 40.3318 141.48 39.7772C141.245 39.2225 141.128 38.5772 141.128 37.8412C141.128 37.4252 141.197 37.0145 141.336 36.6092C141.474 36.1932 141.698 35.7985 142.008 35.4252C142.328 35.0518 142.738 34.6998 143.24 34.3692C143.741 34.0385 144.354 33.7505 145.08 33.5052C145.816 33.2598 146.669 33.0625 147.64 32.9132C148.61 32.7532 149.72 32.6572 150.968 32.6252V31.6652C150.968 30.5665 150.733 29.7558 150.264 29.2332C149.794 28.6998 149.117 28.4332 148.232 28.4332C147.592 28.4332 147.058 28.5078 146.632 28.6572C146.216 28.8065 145.848 28.9772 145.528 29.1692C145.208 29.3505 144.914 29.5158 144.648 29.6652C144.392 29.8145 144.104 29.8892 143.784 29.8892C143.506 29.8892 143.272 29.8198 143.08 29.6812C142.888 29.5318 142.733 29.3612 142.616 29.1692L141.912 27.9052ZM168.85 29.8092C168.402 29.2652 167.911 28.8812 167.378 28.6572C166.855 28.4332 166.29 28.3212 165.682 28.3212C165.084 28.3212 164.546 28.4332 164.066 28.6572C163.586 28.8812 163.175 29.2225 162.834 29.6812C162.492 30.1292 162.231 30.7052 162.05 31.4092C161.868 32.1025 161.778 32.9238 161.778 33.8732C161.778 34.8332 161.852 35.6492 162.002 36.3212C162.162 36.9825 162.386 37.5265 162.674 37.9532C162.962 38.3692 163.314 38.6732 163.73 38.8652C164.146 39.0465 164.61 39.1372 165.122 39.1372C165.943 39.1372 166.642 38.9665 167.218 38.6252C167.794 38.2838 168.338 37.7985 168.85 37.1692V29.8092ZM172.802 18.2572V42.0332H170.386C169.863 42.0332 169.532 41.7932 169.394 41.3132L169.058 39.7292C168.396 40.4865 167.634 41.0998 166.77 41.5692C165.916 42.0385 164.919 42.2732 163.778 42.2732C162.882 42.2732 162.06 42.0865 161.314 41.7132C160.567 41.3398 159.922 40.8012 159.378 40.0972C158.844 39.3825 158.428 38.5025 158.13 37.4572C157.842 36.4118 157.698 35.2172 157.698 33.8732C157.698 32.6572 157.863 31.5265 158.194 30.4812C158.524 29.4358 158.999 28.5292 159.618 27.7612C160.236 26.9932 160.978 26.3958 161.842 25.9692C162.706 25.5318 163.676 25.3132 164.754 25.3132C165.671 25.3132 166.455 25.4572 167.106 25.7452C167.756 26.0332 168.338 26.4225 168.85 26.9132V18.2572H172.802ZM186.718 28.8172C186.611 28.9878 186.499 29.1105 186.382 29.1852C186.265 29.2492 186.115 29.2812 185.934 29.2812C185.742 29.2812 185.534 29.2278 185.31 29.1212C185.097 29.0145 184.846 28.8972 184.558 28.7692C184.27 28.6305 183.939 28.5078 183.566 28.4012C183.203 28.2945 182.771 28.2412 182.27 28.2412C181.491 28.2412 180.878 28.4065 180.43 28.7372C179.993 29.0678 179.774 29.4998 179.774 30.0332C179.774 30.3852 179.886 30.6838 180.11 30.9292C180.345 31.1638 180.649 31.3718 181.022 31.5532C181.406 31.7345 181.838 31.8998 182.318 32.0492C182.798 32.1878 183.283 32.3425 183.774 32.5132C184.275 32.6838 184.766 32.8812 185.246 33.1052C185.726 33.3185 186.153 33.5958 186.526 33.9372C186.91 34.2678 187.214 34.6678 187.438 35.1372C187.673 35.6065 187.79 36.1718 187.79 36.8332C187.79 37.6225 187.646 38.3532 187.358 39.0252C187.081 39.6865 186.665 40.2625 186.11 40.7532C185.555 41.2332 184.867 41.6118 184.046 41.8892C183.235 42.1558 182.297 42.2892 181.23 42.2892C180.665 42.2892 180.11 42.2358 179.566 42.1292C179.033 42.0332 178.515 41.8945 178.014 41.7132C177.523 41.5318 177.065 41.3185 176.638 41.0732C176.222 40.8278 175.854 40.5612 175.534 40.2732L176.446 38.7692C176.563 38.5878 176.702 38.4492 176.862 38.3532C177.022 38.2572 177.225 38.2092 177.47 38.2092C177.715 38.2092 177.945 38.2785 178.158 38.4172C178.382 38.5558 178.638 38.7052 178.926 38.8652C179.214 39.0252 179.55 39.1745 179.934 39.3132C180.329 39.4518 180.825 39.5212 181.422 39.5212C181.891 39.5212 182.291 39.4678 182.622 39.3612C182.963 39.2438 183.241 39.0945 183.454 38.9132C183.678 38.7318 183.838 38.5238 183.934 38.2892C184.041 38.0438 184.094 37.7932 184.094 37.5372C184.094 37.1532 183.977 36.8385 183.742 36.5932C183.518 36.3478 183.214 36.1345 182.83 35.9532C182.457 35.7718 182.025 35.6118 181.534 35.4732C181.054 35.3238 180.558 35.1638 180.046 34.9932C179.545 34.8225 179.049 34.6252 178.558 34.4012C178.078 34.1665 177.646 33.8732 177.262 33.5212C176.889 33.1692 176.585 32.7372 176.35 32.2252C176.126 31.7132 176.014 31.0945 176.014 30.3692C176.014 29.6972 176.147 29.0572 176.414 28.4492C176.681 27.8412 177.07 27.3132 177.582 26.8652C178.105 26.4065 178.75 26.0438 179.518 25.7772C180.297 25.4998 181.193 25.3612 182.206 25.3612C183.337 25.3612 184.366 25.5478 185.294 25.9212C186.222 26.2945 186.995 26.7852 187.614 27.3932L186.718 28.8172Z" fill="black"/>
<defs>
<linearGradient id="paint0_linear_328_15" x1="3.2299" y1="59.4061" x2="60.2796" y2="59.4061" gradientUnits="userSpaceOnUse">
<stop stop-color="#30B56D" stop-opacity="0.498039"/>
<stop offset="1" stop-color="#2C0CEE"/>
</linearGradient>
<linearGradient id="paint1_linear_328_15" x1="3.2299" y1="59.4061" x2="60.2796" y2="59.4061" gradientUnits="userSpaceOnUse">
<stop stop-color="#30B56D" stop-opacity="0.498039"/>
<stop offset="1" stop-color="#2C0CEE"/>
</linearGradient>
<linearGradient id="paint2_linear_328_15" x1="67.5576" y1="52.1654" x2="39.0327" y2="2.75893" gradientUnits="userSpaceOnUse">
<stop stop-color="#307F56" stop-opacity="0.85098"/>
<stop offset="1" stop-color="#9BFA00"/>
</linearGradient>
<linearGradient id="paint3_linear_328_15" x1="67.5576" y1="52.1654" x2="39.0327" y2="2.75893" gradientUnits="userSpaceOnUse">
<stop stop-color="#307F56" stop-opacity="0.85098"/>
<stop offset="1" stop-color="#9BFA00"/>
</linearGradient>
<linearGradient id="paint4_linear_328_15" x1="29.7423" y1="0.213944" x2="0.359579" y2="49.115" gradientUnits="userSpaceOnUse">
<stop stop-color="#30B56D"/>
<stop offset="0.0001" stop-color="#7F56D9"/>
<stop offset="1" stop-color="#2C0CEE"/>
</linearGradient>
<linearGradient id="paint5_linear_328_15" x1="29.7423" y1="0.213944" x2="0.359579" y2="49.115" gradientUnits="userSpaceOnUse">
<stop stop-color="#30B56D"/>
<stop offset="0.0001" stop-color="#7F56D9"/>
<stop offset="1" stop-color="#2C0CEE"/>
</linearGradient>
</defs>
</svg>
